<svg preserveAspectRatio="none" width="100%" height="100%" overflow="visible" style="display: block;" viewBox="0 0 13.7355 10.7547" fill="none" xmlns="http://www.w3.org/2000/svg">
<path id="Vector" d="M0 0H8.94683C10.748 0 11.2406 0.112994 12.1705 0.655363C12.9242 1.09378 13.279 2.0384 13.279 2.74236C13.279 3.44631 13.1615 3.95817 12.7525 4.36155C12.5299 4.58076 12.1898 4.78754 11.7333 4.97737V4.99206C12.4835 5.20223 12.9468 5.55477 13.2971 6.04855C13.5897 6.44968 13.7355 6.95928 13.7355 7.56944C13.7355 7.99204 13.6259 8.4022 13.4022 8.80559C13.2033 9.18977 12.8248 9.69033 12.2881 10.0248C11.8056 10.3231 11.409 10.548 10.7118 10.6417C10.0372 10.7378 9.45757 10.7547 8.1039 10.7547H0V0ZM4.25534 4.22935H7.69487C8.27 4.22935 8.55023 4.22031 8.89034 4.02822C9.27677 3.81805 9.38299 3.42823 9.38299 3.03388C9.38299 2.59659 9.16039 2.24179 8.79542 2.05761C8.47904 1.8949 8.28808 1.85649 7.60673 1.85649H4.25647V4.22822L4.25534 4.22935ZM4.25534 8.92311H7.73441C8.43949 8.92311 8.85531 8.85192 9.20898 8.59768C9.58412 8.33328 9.70841 7.94232 9.70841 7.39543C9.70841 7.05758 9.49598 6.61691 9.07226 6.37962C8.71972 6.18753 8.40447 6.12651 7.85193 6.12651H4.25647V8.92197L4.25534 8.92311Z" fill="var(--fill-0, white)"/>
</svg>
