<svg preserveAspectRatio="none" width="100%" height="100%" overflow="visible" style="display: block;" viewBox="0 0 19.0993 18.6511" fill="none" xmlns="http://www.w3.org/2000/svg">
<path id="Vector" d="M13.7988 1.41496C13.9649 0.920053 14.1242 0.478248 14.2508 0.161866C14.2575 0.147176 14.2609 0.132487 14.2609 0.120058C14.2609 0.0714708 14.2315 0.0262733 14.183 0.00819434C14.1231 -0.0155343 14.0541 0.013844 14.0293 0.0759905C14.0225 0.0929396 13.8191 0.61045 13.4632 1.31101C12.6282 1.0274 11.7491 0.838697 10.8191 0.838697C6.60561 0.838697 3.15704 4.01382 2.64292 8.08724C1.9627 8.03187 1.31299 7.90984 0.849712 7.79797C0.456494 7.68272 0.187569 7.61831 0.148022 7.60927C0.0847452 7.59459 0.0214688 7.63074 0.00451974 7.69402C0.00112994 7.70419 0 7.71662 0 7.72679C0 7.77651 0.0327682 7.82396 0.0836153 7.83865C0.125423 7.85334 0.394348 7.93809 0.798865 8.03413C1.27005 8.17424 1.92315 8.39458 2.58416 8.67368C2.57625 8.82396 2.53897 8.96633 2.53897 9.11887C2.53897 13.1301 5.40674 16.4804 9.19994 17.2352C9.34118 17.9708 9.39203 18.5278 9.39429 18.5403C9.39881 18.6058 9.45305 18.6533 9.51632 18.651C9.5796 18.6499 9.63158 18.599 9.63158 18.5335C9.63158 18.5199 9.64966 17.9968 9.76265 17.2917C10.1118 17.3369 10.4576 17.399 10.8191 17.399C15.3852 17.399 19.0993 13.6838 19.0993 9.11887C19.0993 5.60703 16.8914 2.61722 13.7988 1.41496ZM18.54 6.99798C18.5242 6.95956 18.488 6.93583 18.4485 6.946C18.2869 6.98894 18.088 7.0364 17.8654 7.08498C17.2293 4.89065 15.6236 3.11439 13.5197 2.2805C13.5864 2.06129 13.6553 1.84773 13.7219 1.64208C16.0711 2.55733 17.8632 4.54263 18.54 6.99798ZM5.50618 3.111C5.85872 2.79575 6.23951 2.50987 6.64403 2.26016C6.84628 2.13473 7.05419 2.01948 7.26888 1.91214C8.3378 1.37881 9.54231 1.07824 10.8191 1.07824C11.0417 1.07824 11.2609 1.08954 11.4768 1.10988C11.9095 1.15169 12.3299 1.23305 12.7412 1.34152C12.9468 1.39576 13.1491 1.45677 13.3491 1.52457C13.2474 1.71892 13.1445 1.9144 13.0225 2.12456C12.6722 2.01383 12.3152 1.92005 11.9479 1.85451C11.5818 1.78897 11.2056 1.75056 10.8191 1.75056C9.93779 1.75056 9.09825 1.91214 8.31972 2.20366C7.54119 2.49518 6.82481 2.91552 6.18979 3.43416C6.13555 3.35168 6.0994 3.29292 6.09714 3.29066C6.08132 3.26241 6.05646 3.2432 6.02821 3.23416C5.99996 3.22512 5.96945 3.22625 5.9412 3.24094C5.91296 3.2545 5.89149 3.27823 5.88132 3.30648C5.87115 3.33473 5.87115 3.36636 5.88132 3.39574C5.88132 3.39574 5.88358 3.40365 5.8881 3.41495C5.90053 3.44885 5.92765 3.52682 5.96041 3.62286C5.63838 3.9076 5.34234 4.21947 5.07454 4.55506C4.80788 4.89065 4.56946 5.24884 4.36381 5.6285C4.15817 6.00703 3.98529 6.40702 3.84856 6.82284C3.71184 7.23866 3.61128 7.67142 3.54913 8.11775C3.32653 8.12566 3.10054 8.11775 2.87682 8.10645C3.12992 6.13132 4.09263 4.37427 5.50392 3.111H5.50618ZM7.83046 16.5798C7.19656 16.3256 6.60222 15.9923 6.05985 15.5934C5.51748 15.1945 5.02596 14.7279 4.59997 14.2081C4.17285 13.6883 3.81014 13.1143 3.52314 12.4974C3.33218 12.0861 3.17399 11.6567 3.05422 11.2115C2.93444 10.7663 2.85083 10.3064 2.80902 9.83412C2.78755 9.59796 2.77738 9.35955 2.77738 9.11774C2.77738 9.05785 2.78529 9.00136 2.7932 8.94373C2.80111 8.8861 2.81015 8.82961 2.81241 8.77085C3.02936 8.86802 3.24631 8.96859 3.45534 9.07932C3.45534 9.09288 3.45196 9.10418 3.45196 9.11774C3.45196 10.6895 3.95591 12.1414 4.79771 13.3381C4.79771 13.3392 4.78867 13.3516 4.78867 13.3516C4.77285 13.3742 4.76607 13.3991 4.76607 13.4239C4.76607 13.4397 4.76946 13.4612 4.77624 13.4759C4.78302 13.4906 4.79319 13.4996 4.80562 13.5132C4.82483 13.529 4.84743 13.5347 4.87003 13.5335C4.89375 13.5324 4.91748 13.5234 4.94008 13.5121C5.80335 14.6635 6.98753 15.5471 8.36605 16.0363C8.56266 16.1064 8.76378 16.1674 8.9683 16.2216C9.04062 16.4849 9.09825 16.7369 9.14909 16.981C8.69486 16.8849 8.25418 16.7493 7.83159 16.5798H7.83046ZM9.68016 17.0454C9.6666 17.1233 9.64626 17.2058 9.63497 17.2793C9.52084 18.0047 9.51067 18.5346 9.51067 18.5346C9.51067 18.5346 9.46886 17.99 9.33214 17.2499C9.31745 17.1731 9.29712 17.0872 9.2813 17.0058C9.0474 15.8578 8.59316 14.3618 7.71068 13.59C6.16832 12.2409 4.88358 13.4262 4.88358 13.4262C4.88358 13.4262 6.08584 11.79 5.17963 10.3223C4.75477 9.63412 3.79546 9.0748 2.82371 8.64769C2.748 8.61379 2.6723 8.58215 2.59546 8.54938C1.92315 8.26916 1.26892 8.04995 0.801125 7.91323C1.26892 8.02735 1.93106 8.15051 2.63049 8.2104C2.70959 8.21718 2.78755 8.2217 2.86665 8.22622C3.91636 8.28724 5.00675 8.17085 5.62821 7.53583C7.10165 6.02962 5.99205 3.35281 5.99205 3.35281C5.99205 3.35281 7.35701 5.77426 9.5683 5.45336C11.2892 5.20364 12.6892 3.05789 13.4677 1.56525C13.5061 1.49293 13.5434 1.41948 13.5796 1.34943C13.9061 0.700845 14.1016 0.213843 14.1332 0.134747C14.1016 0.214973 13.9129 0.700845 13.6813 1.38107C13.6564 1.45451 13.6315 1.53022 13.6056 1.60705C13.0203 3.36636 12.2485 6.16974 12.9332 7.06239C13.8621 8.27029 18.4767 7.06239 18.4767 7.06239C18.4767 7.06239 14.6304 8.30306 14.0428 10.4364C13.5355 12.2748 15.6813 14.2928 15.6813 14.2928C15.6813 14.2928 13.0564 12.5934 11.6191 13.4623C10.4067 14.1945 9.89937 15.8284 9.68016 17.0476V17.0454ZM18.5649 7.07821C18.7377 7.73357 18.8598 8.40927 18.8598 9.11887C18.8598 13.5527 15.253 17.1606 10.818 17.1606C10.4711 17.1606 10.14 17.1007 9.80446 17.0578C9.84287 16.8454 9.88468 16.6284 9.94344 16.3979C10.2338 16.4329 10.5186 16.4861 10.818 16.4861C14.8813 16.4861 18.1852 13.1821 18.1852 9.11887C18.1852 8.51774 18.0925 7.94261 17.9569 7.38329C18.2824 7.25334 18.505 7.17764 18.514 7.17425C18.5536 7.16182 18.5739 7.13922 18.5637 7.07821" fill="var(--fill-0, white)"/>
</svg>
