<svg preserveAspectRatio="none" width="100%" height="100%" overflow="visible" style="display: block;" viewBox="0 0 13.7129 10.8923" fill="none" xmlns="http://www.w3.org/2000/svg">
<path id="Vector" d="M9.75926 7.3785C9.75926 7.61466 9.74909 7.77624 9.55587 8.14347L9.54344 8.1672L9.53101 8.19205C9.45191 8.35025 9.23836 8.57736 8.89485 8.6994C8.28921 8.91521 7.83724 8.93781 7.02143 8.93781C6.20561 8.93781 5.8429 8.91521 5.23838 8.6994C4.89488 8.57623 4.68132 8.35025 4.59997 8.19205L4.58641 8.1672L4.57624 8.14347C4.38189 7.77737 4.37059 7.61466 4.37059 7.3785V3.47005C4.37059 3.23502 4.38076 3.07231 4.57624 2.70395L4.58641 2.68136L4.59997 2.65537C4.68019 2.49718 4.89375 2.26893 5.23838 2.14803C5.8429 1.93334 6.29374 1.90735 7.10956 1.90735C7.92537 1.90735 8.28921 1.93334 8.89485 2.14803C9.23836 2.27006 9.45191 2.49718 9.53101 2.65537L9.54344 2.68136L9.55587 2.70395C9.74796 3.07231 9.75926 3.23502 9.75926 3.47005V3.86214H13.7129V3.60338C13.7129 2.60791 13.4157 1.97176 12.7739 1.32091C12.2078 0.717527 11.27 0.343518 10.3638 0.169508C9.1796 -0.0542196 8.29712 0.00792684 6.85645 0.00792684C5.41578 0.00792684 4.53443 -0.0542196 3.348 0.169508C2.44179 0.342388 1.50394 0.717527 0.937846 1.32091C0.296042 1.97176 0 2.60678 0 3.60338V7.21127C0 8.20448 0.296042 9.01578 0.937846 9.66662C1.50394 10.2723 2.44179 10.5559 3.348 10.7276C4.36381 10.922 5.24064 10.8903 6.85645 10.8903C8.47226 10.8903 9.34796 10.922 10.3638 10.7276C11.27 10.5559 12.2078 10.27 12.7739 9.66662C13.4157 9.01578 13.7129 8.20448 13.7129 7.21127V7.035H9.75926V7.3785Z" fill="var(--fill-0, white)"/>
</svg>
