<svg preserveAspectRatio="none" width="100%" height="100%" overflow="visible" style="display: block;" viewBox="0 0 16.0007 16" fill="none" xmlns="http://www.w3.org/2000/svg">
<g id="Icon">
<path id="Vector" d="M0.360107 0.703125C0.110107 0.963542 -0.00968425 1.27083 0.000732422 1.625C0.0111491 1.97917 0.141357 2.27604 0.391357 2.51563L11.5164 13.125H2.62573C2.2924 13.125 2.00594 13.2344 1.76636 13.4531C1.52677 13.6719 1.39136 13.9427 1.36011 14.2656L1.34448 14.4063C1.34448 14.7604 1.46948 15.0625 1.71948 15.3125C1.96948 15.5625 2.27157 15.6875 2.62573 15.6875H14.782C14.7924 15.6875 14.8028 15.6875 14.8132 15.6875C14.8236 15.6875 14.8341 15.6875 14.8445 15.6875H14.7195C14.7611 15.6875 14.8002 15.6875 14.8367 15.6875C14.8731 15.6875 14.9122 15.6823 14.9539 15.6719C14.9539 15.6719 14.9565 15.6719 14.9617 15.6719C14.9669 15.6719 14.9747 15.6667 14.9851 15.6563C15.0059 15.6563 15.0242 15.6536 15.0398 15.6484C15.0554 15.6432 15.0684 15.6406 15.0789 15.6406C15.0893 15.6406 15.0997 15.638 15.1101 15.6328C15.1205 15.6276 15.1309 15.625 15.1414 15.625C15.1518 15.6146 15.1622 15.6068 15.1726 15.6016C15.183 15.5964 15.1934 15.5938 15.2039 15.5938C15.2143 15.5938 15.2273 15.5911 15.2429 15.5859C15.2585 15.5807 15.2716 15.5729 15.282 15.5625C15.3445 15.5313 15.407 15.4922 15.4695 15.4453C15.532 15.3984 15.5893 15.349 15.6414 15.2969L15.6726 15.2656C15.683 15.2552 15.6934 15.2422 15.7039 15.2266C15.7143 15.2109 15.7247 15.1979 15.7351 15.1875L15.6414 15.2969C15.6726 15.2656 15.6986 15.2396 15.7195 15.2188C15.7403 15.1979 15.7559 15.1719 15.7664 15.1406C15.7768 15.1302 15.7872 15.1172 15.7976 15.1016C15.808 15.0859 15.8184 15.0729 15.8289 15.0625C15.8289 15.0521 15.8315 15.0417 15.8367 15.0313C15.8419 15.0208 15.8445 15.0156 15.8445 15.0156C15.8549 15.0052 15.8627 14.9922 15.8679 14.9766C15.8731 14.9609 15.8809 14.9479 15.8914 14.9375C15.8914 14.9271 15.894 14.9167 15.8992 14.9063C15.9044 14.8958 15.9122 14.8802 15.9226 14.8594C15.9226 14.849 15.9252 14.8385 15.9304 14.8281C15.9356 14.8177 15.9382 14.8073 15.9382 14.7969C15.9382 14.7865 15.9408 14.776 15.946 14.7656C15.9513 14.7552 15.9539 14.7396 15.9539 14.7188C15.9643 14.7083 15.9695 14.6979 15.9695 14.6875C15.9695 14.6771 15.9695 14.6667 15.9695 14.6563C15.9799 14.6458 15.9851 14.6328 15.9851 14.6172C15.9851 14.6016 15.9851 14.5885 15.9851 14.5781C15.9851 14.5677 15.9877 14.5573 15.9929 14.5469C15.9981 14.5365 16.0007 14.526 16.0007 14.5156C16.0007 14.4948 16.0007 14.4792 16.0007 14.4688C16.0007 14.4583 16.0007 14.4427 16.0007 14.4219C16.0007 14.4219 16.0007 14.4193 16.0007 14.4141C16.0007 14.4089 16.0007 14.4063 16.0007 14.4063V2.875C16.0007 2.52083 15.8757 2.21875 15.6257 1.96875C15.3757 1.71875 15.0736 1.59375 14.7195 1.59375C14.3653 1.59375 14.0632 1.71875 13.8132 1.96875C13.5632 2.21875 13.4382 2.52083 13.4382 2.875V11.4063L2.17261 0.65625C1.91219 0.416667 1.6049 0.302083 1.25073 0.3125C0.896566 0.322917 0.599691 0.453125 0.360107 0.703125Z" fill="var(--fill-0, #006241)"/>
</g>
</svg>
