<svg width="60" height="60" viewBox="0 0 60 60" fill="none" xmlns="http://www.w3.org/2000/svg">
<path d="M30.1367 18.9523C31.718 18.9523 32.9998 17.6705 32.9998 16.0892V10.3631C32.9998 8.78179 31.718 7.5 30.1367 7.5C28.5555 7.5 27.2737 8.78179 27.2737 10.3631V13.2261" stroke="#006241" stroke-width="3" stroke-miterlimit="10"/>
<path d="M41.5889 18.9523C43.1702 18.9523 44.452 17.6705 44.452 16.0892V10.3631C44.452 8.78179 43.1702 7.5 41.5889 7.5C40.0076 7.5 38.7258 8.78179 38.7258 10.3631V13.2261" stroke="#006241" stroke-width="3" stroke-miterlimit="10"/>
<path d="M18.6846 18.9523C20.2659 18.9523 21.5477 17.6705 21.5477 16.0892V10.3631C21.5477 8.78179 20.2659 7.5 18.6846 7.5C17.1033 7.5 15.8215 8.78179 15.8215 10.3631V13.2261" stroke="#006241" stroke-width="3" stroke-miterlimit="10"/>
<path d="M50.2737 13.2266H10V53.5004H50.2737V13.2266Z" stroke="#006241" stroke-width="3" stroke-miterlimit="10"/>
<path d="M14.3899 42.0469H17.253" stroke="#006241" stroke-width="3" stroke-miterlimit="10"/>
<path d="M20.1162 42.0469H22.9793" stroke="#006241" stroke-width="3" stroke-miterlimit="10"/>
<path d="M25.842 42.0469H28.7051" stroke="#006241" stroke-width="3" stroke-miterlimit="10"/>
<path d="M31.5686 42.0469H34.4317" stroke="#006241" stroke-width="3" stroke-miterlimit="10"/>
<path d="M14.3899 36.3213H17.253" stroke="#006241" stroke-width="3" stroke-miterlimit="10"/>
<path d="M20.1162 36.3213H22.9793" stroke="#006241" stroke-width="3" stroke-miterlimit="10"/>
<path d="M25.842 36.3213H28.7051" stroke="#006241" stroke-width="3" stroke-miterlimit="10"/>
<path d="M31.5686 36.3213H34.4317" stroke="#006241" stroke-width="3" stroke-miterlimit="10"/>
<path d="M14.3899 30.5947H17.253" stroke="#006241" stroke-width="3" stroke-miterlimit="10"/>
<path d="M20.1162 30.5947H22.9793" stroke="#006241" stroke-width="3" stroke-miterlimit="10"/>
<path d="M25.842 30.5947H28.7051" stroke="#006241" stroke-width="3" stroke-miterlimit="10"/>
<path d="M31.5686 30.5947H34.4317" stroke="#006241" stroke-width="3" stroke-miterlimit="10"/>
<path d="M37.2944 30.5947H40.1575" stroke="#006241" stroke-width="3" stroke-miterlimit="10"/>
<path d="M43.0208 30.5947H45.8838" stroke="#006241" stroke-width="3" stroke-miterlimit="10"/>
<path d="M25.842 24.8691H28.7051" stroke="#006241" stroke-width="3" stroke-miterlimit="10"/>
<path d="M31.5686 24.8691H34.4317" stroke="#006241" stroke-width="3" stroke-miterlimit="10"/>
<path d="M37.2944 24.8691H40.1575" stroke="#006241" stroke-width="3" stroke-miterlimit="10"/>
<path d="M43.0208 24.8691H45.8838" stroke="#006241" stroke-width="3" stroke-miterlimit="10"/>
<path d="M10 47.7738H41.6845C46.4283 47.7738 50.2737 43.9283 50.2737 39.1846" stroke="#006241" stroke-width="3" stroke-miterlimit="10"/>
<path d="M41.6846 47.7738V39.1846H50.2738" stroke="#006241" stroke-width="3" stroke-miterlimit="10"/>
</svg>
