<svg width="108" height="108" viewBox="0 0 108 108" fill="none" xmlns="http://www.w3.org/2000/svg">
<path d="M80.8165 27.0322L78.3488 39.8139L77.5143 44.1365C77.1847 45.8499 76.3439 47.4259 75.1038 48.6597L55.6438 68.0034L50.7656 72.8541L40.4747 83.0837L24.4331 67.1351L34.7705 56.859L39.6487 52.0083L51.9149 39.8139L59.06 32.7111C60.3023 31.4773 61.8868 30.6428 63.6107 30.3132L80.8165 27.0322Z" stroke="#006241" stroke-width="3" stroke-miterlimit="10" stroke-linecap="round" stroke-linejoin="round"/>
<path d="M82.6375 28.8422L78.995 25.2213C77.5069 23.7418 77.5069 21.343 78.995 19.8635C80.4832 18.384 82.8963 18.384 84.3845 19.8635L88.027 23.4845C89.5152 24.964 89.5152 27.3627 88.027 28.8422C86.5388 30.3217 84.1259 30.3217 82.6375 28.8422Z" stroke="#006241" stroke-width="3" stroke-miterlimit="10" stroke-linecap="round" stroke-linejoin="round"/>
<path d="M106.5 1.5L86.2056 21.6742" stroke="#006241" stroke-width="3" stroke-miterlimit="10" stroke-linecap="round" stroke-linejoin="round"/>
<path d="M45.8349 88.4128L19.0718 61.8076" stroke="#006241" stroke-width="3" stroke-miterlimit="10" stroke-linecap="round" stroke-linejoin="round"/>
<path d="M23.9356 77.0923L15.7606 85.2179C11.9981 83.8996 7.64216 84.7358 4.63306 87.7272C0.455647 91.8801 0.455647 98.6132 4.63306 102.766C8.81047 106.919 15.5837 106.919 19.7612 102.766C22.7705 99.7745 23.6113 95.4444 22.2852 91.7041L35.7155 78.3524L29.1909 71.8662" stroke="#006241" stroke-width="3" stroke-miterlimit="10" stroke-linecap="round" stroke-linejoin="round"/>
<path d="M12.1968 99.9203C14.793 99.9203 16.8975 97.8281 16.8975 95.2473C16.8975 92.6664 14.793 90.5742 12.1968 90.5742C9.60068 90.5742 7.49609 92.6664 7.49609 95.2473C7.49609 97.8281 9.60068 99.9203 12.1968 99.9203Z" stroke="#006241" stroke-width="3" stroke-miterlimit="10" stroke-linecap="round" stroke-linejoin="round"/>
<path d="M55.6438 68.0039L50.7657 72.8546L34.7705 56.8595L39.6487 52.0088L55.6438 68.0039Z" stroke="#006241" stroke-width="3" stroke-miterlimit="10" stroke-linecap="round" stroke-linejoin="round"/>
<path d="M78.3486 39.8145L77.5141 44.137C77.1845 45.8504 76.3437 47.4264 75.1035 48.6602L55.6436 68.0039L39.6484 52.0088L51.9147 39.8145H78.3486Z" stroke="#006241" stroke-width="3" stroke-miterlimit="10" stroke-linecap="round" stroke-linejoin="round"/>
<path d="M67.3799 45.6318L68.4888 46.7408" stroke="#006241" stroke-width="3" stroke-miterlimit="10" stroke-linecap="round" stroke-linejoin="round"/>
<ellipse cx="63.1841" cy="49.8277" rx="1.58451" ry="1.58451" fill="black" stroke="#006241" stroke-width="3" stroke-miterlimit="10" stroke-linecap="round" stroke-linejoin="round"/>
<path d="M58.9878 54.0234L60.0965 55.1322" stroke="#006241" stroke-width="3" stroke-miterlimit="10" stroke-linecap="round" stroke-linejoin="round"/>
<ellipse cx="54.792" cy="58.2193" rx="1.58451" ry="1.58451" fill="black" stroke="#006241" stroke-width="3" stroke-miterlimit="10" stroke-linecap="round" stroke-linejoin="round"/>
<path d="M74.1667 91.1728V102.668C74.1667 104.613 75.7436 106.19 77.6886 106.19H102.851C104.796 106.19 106.373 104.613 106.373 102.668V72.7458C106.373 71.1615 105.538 69.6945 104.175 68.8859L93.648 62.6377H86.8914L76.3641 68.8859C75.0017 69.6945 74.1665 71.1615 74.1665 72.7458V83.7489" stroke="#006241" stroke-width="3" stroke-miterlimit="10" stroke-linecap="round" stroke-linejoin="round"/>
<path d="M100.669 73.4385H79.8711V100.486H100.669V73.4385Z" stroke="#006241" stroke-width="3" stroke-miterlimit="10" stroke-linecap="round" stroke-linejoin="round"/>
<path d="M100.751 62.6382H79.789C78.5497 62.6382 77.5449 61.6336 77.5449 60.3941V56.3652C77.5449 55.1259 78.5495 54.1211 79.789 54.1211H100.751C101.99 54.1211 102.995 55.1257 102.995 56.3652V60.3941C102.995 61.6336 101.99 62.6382 100.751 62.6382Z" stroke="#006241" stroke-width="3" stroke-miterlimit="10" stroke-linecap="round" stroke-linejoin="round"/>
</svg>
