<svg width="185" height="40" viewBox="0 0 185 40" fill="none" xmlns="http://www.w3.org/2000/svg">
<path d="M68.7117 8.39209H77.3126V31.4926H68.0683L56.6288 17.5543H56.5123V31.4926H47.8386V8.39209H57.8065L68.6729 21.7707H68.7117V8.39209Z" fill="white"/>
<path d="M90.7627 31.4926H81.5281V8.39209H90.7627V31.4926Z" fill="white"/>
<path d="M94.9805 8.39209H114.207C118.078 8.39209 119.137 8.63441 121.135 9.79755C122.755 10.7378 123.517 12.7636 123.517 14.2732C123.517 15.7829 123.265 16.8806 122.386 17.7457C121.907 18.2158 121.176 18.6592 120.195 19.0663V19.0978C121.808 19.5486 122.803 20.3046 123.556 21.3636C124.185 22.2238 124.498 23.3167 124.498 24.6252C124.498 25.5315 124.263 26.4111 123.782 27.2762C123.354 28.1001 122.541 29.1736 121.388 29.8908C120.351 30.5306 119.498 31.0128 118 31.2139C116.55 31.4199 115.305 31.4562 112.396 31.4562H94.9805V8.39209ZM104.125 17.4622H111.517C112.753 17.4622 113.355 17.4428 114.086 17.0308C114.916 16.5801 115.145 15.7441 115.145 14.8984C115.145 13.9606 114.666 13.1997 113.882 12.8048C113.202 12.4558 112.792 12.3734 111.327 12.3734H104.128V17.4598L104.125 17.4622ZM104.125 27.5282H111.602C113.117 27.5282 114.011 27.3755 114.771 26.8303C115.577 26.2633 115.844 25.4249 115.844 24.252C115.844 23.5275 115.387 22.5824 114.477 22.0736C113.719 21.6616 113.042 21.5308 111.854 21.5308H104.128V27.5258L104.125 27.5282Z" fill="white"/>
<path d="M151.816 12.6739H137.108V17.3531H150.529V21.7803H137.108V27.2253H152.462V31.5096H127.951V8.39209H151.816V12.6739Z" fill="white"/>
<path d="M176.504 24.143C176.504 24.6494 176.482 24.9959 176.067 25.7835L176.04 25.8344L176.013 25.8877C175.843 26.2269 175.384 26.714 174.646 26.9757C173.345 27.4385 172.373 27.487 170.62 27.487C168.867 27.487 168.087 27.4385 166.788 26.9757C166.05 26.7116 165.591 26.2269 165.416 25.8877L165.387 25.8344L165.365 25.7835C164.948 24.9984 164.923 24.6494 164.923 24.143V15.7611C164.923 15.257 164.945 14.9081 165.365 14.1181L165.387 14.0697L165.416 14.0139C165.589 13.6747 166.048 13.1852 166.788 12.9259C168.087 12.4655 169.056 12.4098 170.809 12.4098C172.563 12.4098 173.345 12.4655 174.646 12.9259C175.384 13.1876 175.843 13.6747 176.013 14.0139L176.04 14.0697L176.067 14.1181C176.479 14.9081 176.504 15.257 176.504 15.7611V16.6019H185V16.047C185 13.9122 184.361 12.5479 182.982 11.1521C181.766 9.85811 179.75 9.05603 177.803 8.68286C175.258 8.20306 173.362 8.33634 170.266 8.33634C167.17 8.33634 165.276 8.20306 162.726 8.68286C160.778 9.05361 158.763 9.85811 157.546 11.1521C156.167 12.5479 155.531 13.9097 155.531 16.047V23.7843C155.531 25.9143 156.167 27.6542 157.546 29.05C158.763 30.3488 160.778 30.957 162.726 31.3254C164.909 31.7422 166.793 31.6743 170.266 31.6743C173.738 31.6743 175.62 31.7422 177.803 31.3254C179.75 30.957 181.766 30.344 182.982 29.05C184.361 27.6542 185 25.9143 185 23.7843V23.4063H176.504V24.143Z" fill="white"/>
<path d="M29.6563 3.03448C30.0133 1.97311 30.3556 1.02563 30.6276 0.34713C30.6422 0.315629 30.6494 0.284127 30.6494 0.257471C30.6494 0.153273 30.5863 0.0563447 30.4819 0.0175732C30.3532 -0.0333143 30.2051 0.0296893 30.1517 0.162966C30.1371 0.199314 29.7 1.30915 28.9351 2.81154C27.1406 2.20331 25.2515 1.79864 23.253 1.79864C14.1982 1.79864 6.78718 8.60787 5.68233 17.3436C4.22053 17.2248 2.8243 16.9631 1.82872 16.7232C0.983693 16.476 0.405773 16.3379 0.320784 16.3185C0.184803 16.287 0.048822 16.3646 0.0123985 16.5003C0.00511378 16.5221 0.00268555 16.5487 0.00268555 16.5705C0.00268555 16.6772 0.0731044 16.7789 0.182375 16.8104C0.27222 16.8419 0.85014 17.0237 1.71945 17.2297C2.73202 17.5301 4.13554 18.0027 5.55606 18.6012C5.53906 18.9235 5.45893 19.2288 5.45893 19.5559C5.45893 28.1584 11.6218 35.3432 19.7734 36.9619C20.0769 38.5394 20.1862 39.7341 20.191 39.7607C20.2008 39.9013 20.3173 40.003 20.4533 39.9982C20.5893 39.9958 20.701 39.8867 20.701 39.7462C20.701 39.7171 20.7398 38.5951 20.9826 37.0831C21.733 37.18 22.476 37.3133 23.253 37.3133C33.0655 37.3133 41.0472 29.3457 41.0472 19.5559C41.0472 12.0246 36.3024 5.61277 29.6563 3.03448ZM39.8452 15.0076C39.8112 14.9252 39.7335 14.8743 39.6485 14.8961C39.3013 14.9882 38.8739 15.09 38.3955 15.1942C37.0284 10.4883 33.5779 6.67899 29.0565 4.89066C29.1998 4.42055 29.3479 3.96257 29.4912 3.52154C34.5395 5.48434 38.3907 9.74193 39.8452 15.0076ZM11.8355 6.67172C12.5931 5.99564 13.4114 5.38257 14.2807 4.84704C14.7154 4.57806 15.1622 4.33089 15.6235 4.10069C17.9206 2.95693 20.5091 2.31236 23.253 2.31236C23.7314 2.31236 24.2025 2.33659 24.6663 2.38021C25.5963 2.46987 26.4996 2.64434 27.3835 2.87697C27.8254 2.99328 28.2601 3.12413 28.6899 3.26953C28.4713 3.68632 28.2504 4.10554 27.9881 4.55625C27.2353 4.31878 26.468 4.11765 25.6789 3.9771C24.8921 3.83656 24.0835 3.75417 23.253 3.75417C21.359 3.75417 19.5548 4.10069 17.8818 4.72588C16.2087 5.35107 14.6692 6.2525 13.3046 7.36476C13.188 7.18786 13.1103 7.06186 13.1054 7.05701C13.0715 6.99643 13.018 6.95524 12.9573 6.93585C12.8966 6.91646 12.8311 6.91889 12.7703 6.95039C12.7096 6.97947 12.6635 7.03035 12.6417 7.09094C12.6198 7.15152 12.6198 7.21937 12.6417 7.28237C12.6417 7.28237 12.6465 7.29933 12.6562 7.32356C12.6829 7.39626 12.7412 7.56346 12.8116 7.76944C12.1196 8.38009 11.4834 9.04889 10.9079 9.76859C10.3348 10.4883 9.82247 11.2564 9.38053 12.0706C8.93859 12.8824 8.56707 13.7402 8.27326 14.632C7.97944 15.5237 7.76333 16.4518 7.62977 17.409C7.15141 17.4259 6.66576 17.409 6.18497 17.3847C6.7289 13.149 8.79776 9.38087 11.8306 6.67172H11.8355ZM16.8304 35.5564C15.4681 35.0112 14.1909 34.2964 13.0253 33.441C11.8598 32.5856 10.8035 31.5848 9.88803 30.4701C8.97016 29.3554 8.1907 28.1244 7.57392 26.8014C7.16355 25.9193 6.8236 24.9985 6.56621 24.0437C6.30881 23.089 6.12912 22.1027 6.03928 21.0898C5.99314 20.5834 5.97129 20.0721 5.97129 19.5535C5.97129 19.4251 5.98829 19.3039 6.00528 19.1804C6.02228 19.0568 6.04171 18.9356 6.04656 18.8096C6.51279 19.018 6.97901 19.2337 7.42823 19.4711C7.42823 19.5002 7.42095 19.5244 7.42095 19.5535C7.42095 22.9242 8.50394 26.038 10.313 28.6042C10.313 28.6067 10.2935 28.6333 10.2935 28.6333C10.2596 28.6818 10.245 28.7351 10.245 28.7884C10.245 28.8223 10.2523 28.8684 10.2668 28.8999C10.2814 28.9314 10.3033 28.9507 10.33 28.9798C10.3713 29.0138 10.4198 29.0259 10.4684 29.0234C10.5194 29.021 10.5704 29.0016 10.6189 28.9774C12.4741 31.4467 15.0189 33.3416 17.9813 34.3909C18.4039 34.5411 18.8361 34.672 19.2756 34.7883C19.431 35.3529 19.5548 35.8933 19.6641 36.4167C18.688 36.2107 17.7409 35.9199 16.8328 35.5564H16.8304ZM20.8054 36.5548C20.7762 36.722 20.7325 36.8989 20.7083 37.0564C20.463 38.6121 20.4411 39.7486 20.4411 39.7486C20.4411 39.7486 20.3513 38.5806 20.0575 36.9934C20.0259 36.8286 19.9822 36.6445 19.9482 36.47C19.4456 34.008 18.4694 30.7997 16.573 29.1446C13.2584 26.2513 10.4975 28.7932 10.4975 28.7932C10.4975 28.7932 13.0812 25.2844 11.1337 22.1367C10.2207 20.6609 8.15913 19.4614 6.07085 18.5455C5.90815 18.4728 5.74546 18.4049 5.58034 18.3347C4.13554 17.7337 2.72959 17.2636 1.7243 16.9704C2.72959 17.2151 4.15254 17.4793 5.65562 17.6077C5.82559 17.6222 5.99314 17.6319 6.16312 17.6416C8.41895 17.7725 10.7622 17.5229 12.0977 16.161C15.2641 12.9309 12.8796 7.19029 12.8796 7.19029C12.8796 7.19029 15.8129 12.3832 20.565 11.695C24.2632 11.1595 27.2718 6.55783 28.9448 3.35676C29.0274 3.20168 29.1075 3.04417 29.1852 2.89393C29.887 1.503 30.3071 0.458598 30.3751 0.288973C30.3071 0.461021 29.9016 1.503 29.4038 2.96178C29.3503 3.11929 29.2969 3.28164 29.2411 3.44642C27.9832 7.21937 26.3248 13.2314 27.7963 15.1457C29.7923 17.7361 39.7092 15.1457 39.7092 15.1457C39.7092 15.1457 31.4435 17.8064 30.1808 22.3814C29.0905 26.324 33.7017 30.6518 33.7017 30.6518C33.7017 30.6518 28.0609 27.0073 24.9722 28.8708C22.3667 30.441 21.2765 33.945 20.8054 36.5596V36.5548ZM39.8986 15.1796C40.2701 16.5851 40.5324 18.0342 40.5324 19.5559C40.5324 29.0646 32.7814 36.802 23.2506 36.802C22.5051 36.802 21.7937 36.6735 21.0725 36.5815C21.155 36.1259 21.2449 35.6606 21.3712 35.1663C21.9952 35.2414 22.6071 35.3553 23.2506 35.3553C31.9825 35.3553 39.0827 28.2698 39.0827 19.5559C39.0827 18.2668 38.8836 17.0334 38.5922 15.8339C39.2915 15.5552 39.7699 15.3929 39.7893 15.3856C39.8743 15.3589 39.918 15.3105 39.8962 15.1796" fill="white"/>
<path d="M20.3607 17.3921C18.1558 17.3921 16.3662 19.1756 16.3662 21.3759C16.3662 23.5761 18.1558 25.3572 20.3607 25.3572C22.5655 25.3572 24.3527 23.5761 24.3527 21.3759C24.3527 19.1756 22.5655 17.3921 20.3607 17.3921Z" fill="white"/>
</svg>
