<svg width="198" height="43" viewBox="0 0 198 43" fill="none" xmlns="http://www.w3.org/2000/svg">
<g clip-path="url(#clip0_2944_2207)">
<path d="M73.5401 9.02148H82.7453V33.8545H72.8514L60.6081 18.8708H60.4834V33.8545H51.2002V9.02148H61.8686L73.4985 23.4034H73.5401V9.02148Z" fill="#006241"/>
<path d="M97.1406 33.8545H87.2571V9.02148H97.1406V33.8545Z" fill="#006241"/>
<path d="M101.655 9.02148H122.233C126.375 9.02148 127.508 9.28198 129.647 10.5324C131.381 11.5431 132.197 13.7208 132.197 15.3437C132.197 16.9666 131.926 18.1466 130.986 19.0766C130.474 19.582 129.691 20.0587 128.641 20.4963V20.5302C130.367 21.0147 131.433 21.8274 132.238 22.9658C132.911 23.8906 133.247 25.0654 133.247 26.4721C133.247 27.4463 132.995 28.3919 132.48 29.3219C132.023 30.2076 131.152 31.3616 129.917 32.1326C128.808 32.8204 127.896 33.3387 126.292 33.555C124.741 33.7764 123.407 33.8154 120.294 33.8154H101.655V9.02148ZM111.442 18.7718H119.353C120.676 18.7718 121.32 18.751 122.103 18.3081C122.991 17.8236 123.236 16.9249 123.236 16.0158C123.236 15.0077 122.724 14.1897 121.884 13.7651C121.157 13.39 120.717 13.3014 119.15 13.3014H111.445V18.7692L111.442 18.7718ZM111.442 29.5928H119.444C121.066 29.5928 122.022 29.4287 122.836 28.8426C123.698 28.233 123.984 27.3317 123.984 26.0709C123.984 25.292 123.496 24.2761 122.521 23.7291C121.71 23.2862 120.985 23.1456 119.714 23.1456H111.445V29.5902L111.442 29.5928Z" fill="#006241"/>
<path d="M162.484 13.6244H146.742V18.6546H161.106V23.4139H146.742V29.2672H163.175V33.8728H136.942V9.02148H162.484V13.6244Z" fill="#006241"/>
<path d="M188.907 25.9538C188.907 26.4982 188.883 26.8707 188.439 27.7173L188.41 27.772L188.382 27.8293C188.2 28.194 187.709 28.7176 186.918 28.9989C185.525 29.4965 184.486 29.5486 182.61 29.5486C180.733 29.5486 179.899 29.4965 178.509 28.9989C177.719 28.715 177.227 28.194 177.04 27.8293L177.009 27.772L176.986 27.7173C176.539 26.8733 176.513 26.4982 176.513 25.9538V16.9432C176.513 16.4014 176.536 16.0263 176.986 15.1771L177.009 15.125L177.04 15.065C177.225 14.7003 177.716 14.1741 178.509 13.8954C179.899 13.4005 180.936 13.3406 182.812 13.3406C184.689 13.3406 185.525 13.4005 186.918 13.8954C187.709 14.1768 188.2 14.7003 188.382 15.065L188.41 15.125L188.439 15.1771C188.881 16.0263 188.907 16.4014 188.907 16.9432V17.8471H198V17.2506C198 14.9556 197.317 13.489 195.84 11.9886C194.538 10.5975 192.381 9.73531 190.297 9.33414C187.573 8.81836 185.544 8.96163 182.23 8.96163C178.917 8.96163 176.889 8.81836 174.161 9.33414C172.076 9.7327 169.919 10.5975 168.617 11.9886C167.141 13.489 166.46 14.953 166.46 17.2506V25.5682C166.46 27.858 167.141 29.7283 168.617 31.2288C169.919 32.625 172.076 33.2789 174.161 33.6748C176.497 34.1229 178.514 34.05 182.23 34.05C185.947 34.05 187.961 34.1229 190.297 33.6748C192.381 33.2789 194.538 32.6198 195.84 31.2288C197.317 29.7283 198 27.858 198 25.5682V25.1618H188.907V25.9538Z" fill="#006241"/>
<path d="M31.7401 3.26206C32.1221 2.12109 32.4885 1.10255 32.7796 0.373165C32.7952 0.339301 32.803 0.305436 32.803 0.276782C32.803 0.164769 32.7354 0.0605705 32.6237 0.0188912C32.4859 -0.0358128 32.3274 0.031916 32.2702 0.175189C32.2546 0.214263 31.7868 1.40733 30.9682 3.0224C29.0476 2.36856 27.0257 1.93353 24.8869 1.93353C15.1957 1.93353 7.26392 9.25346 6.08144 18.6443C4.51692 18.5167 3.02257 18.2353 1.95703 17.9775C1.05263 17.7117 0.434098 17.5633 0.343137 17.5424C0.197601 17.5086 0.052064 17.5919 0.013081 17.7378C0.00528442 17.7612 0.00268555 17.7899 0.00268555 17.8133C0.00268555 17.928 0.0780527 18.0374 0.195002 18.0712C0.29116 18.1051 0.90969 18.3005 1.84009 18.5219C2.92381 18.8449 4.42596 19.3529 5.9463 19.9963C5.9281 20.3428 5.84234 20.671 5.84234 21.0226C5.84234 30.2702 12.4383 37.9939 21.1627 39.734C21.4875 41.4299 21.6045 42.7141 21.6097 42.7428C21.6201 42.8939 21.7448 43.0033 21.8904 42.9981C22.0359 42.9954 22.1554 42.8782 22.1554 42.7271C22.1554 42.6959 22.197 41.4898 22.4569 39.8643C23.26 39.9685 24.0552 40.1118 24.8869 40.1118C35.3889 40.1118 43.9314 31.5467 43.9314 21.0226C43.9314 12.9264 38.8532 6.03373 31.7401 3.26206ZM42.6449 16.1331C42.6085 16.0446 42.5254 15.9899 42.4344 16.0133C42.0628 16.1123 41.6054 16.2217 41.0934 16.3337C39.6302 11.2749 35.9372 7.17991 31.0981 5.25746C31.2515 4.7521 31.41 4.25976 31.5633 3.78566C36.9664 5.89567 41.0882 10.4726 42.6449 16.1331ZM12.667 7.1721C13.4778 6.44532 14.3536 5.78626 15.284 5.21057C15.7492 4.92142 16.2274 4.65571 16.7212 4.40824C19.1797 3.1787 21.9501 2.48578 24.8869 2.48578C25.3988 2.48578 25.903 2.51183 26.3994 2.55872C27.3948 2.65511 28.3615 2.84266 29.3075 3.09274C29.7805 3.21778 30.2457 3.35844 30.7057 3.51474C30.4718 3.96279 30.2353 4.41345 29.9546 4.89797C29.149 4.64269 28.3278 4.42648 27.4831 4.27539C26.6411 4.1243 25.7757 4.03573 24.8869 4.03573C22.8597 4.03573 20.9288 4.40824 19.1382 5.08032C17.3475 5.7524 15.6999 6.72144 14.2393 7.91712C14.1145 7.72695 14.0314 7.5915 14.0262 7.58629C13.9898 7.52116 13.9326 7.47688 13.8676 7.45604C13.8027 7.4352 13.7325 7.4378 13.6675 7.47167C13.6026 7.50293 13.5532 7.55763 13.5298 7.62276C13.5064 7.68788 13.5064 7.76082 13.5298 7.82855C13.5298 7.82855 13.535 7.84678 13.5454 7.87283C13.574 7.95098 13.6363 8.13072 13.7117 8.35214C12.971 9.00859 12.2901 9.72756 11.6742 10.5012C11.0609 11.2749 10.5125 12.1007 10.0395 12.9759C9.56652 13.8486 9.16889 14.7708 8.85443 15.7294C8.53997 16.688 8.30867 17.6857 8.16573 18.7147C7.65375 18.7329 7.13398 18.7147 6.6194 18.6886C7.20155 14.1351 9.41579 10.0844 12.6618 7.1721H12.667ZM18.0128 38.2232C16.5549 37.6371 15.1879 36.8686 13.9404 35.949C12.693 35.0295 11.5625 33.9536 10.5827 32.7554C9.60031 31.5571 8.76607 30.2338 8.10596 28.8115C7.66675 27.8633 7.30291 26.8734 7.02743 25.847C6.75195 24.8207 6.55963 23.7605 6.46347 22.6716C6.41409 22.1271 6.3907 21.5775 6.3907 21.02C6.3907 20.882 6.4089 20.7517 6.42709 20.6189C6.44528 20.486 6.46607 20.3558 6.47127 20.2203C6.97025 20.4443 7.46923 20.6762 7.95002 20.9315C7.95002 20.9627 7.94223 20.9888 7.94223 21.02C7.94223 24.6435 9.10132 27.9909 11.0375 30.7495C11.0375 30.7522 11.0167 30.7808 11.0167 30.7808C10.9803 30.8329 10.9647 30.8902 10.9647 30.9475C10.9647 30.984 10.9725 31.0335 10.9881 31.0674C11.0037 31.1012 11.0271 31.1221 11.0557 31.1533C11.0999 31.1898 11.1518 31.2028 11.2038 31.2002C11.2584 31.1976 11.313 31.1768 11.3649 31.1507C13.3505 33.8052 16.0741 35.8422 19.2447 36.9702C19.6969 37.1317 20.1595 37.2724 20.6299 37.3974C20.7962 38.0043 20.9288 38.5853 21.0457 39.1479C20.001 38.9265 18.9874 38.6139 18.0154 38.2232H18.0128ZM22.2672 39.2964C22.236 39.4762 22.1892 39.6663 22.1632 39.8356C21.9007 41.508 21.8774 42.7297 21.8774 42.7297C21.8774 42.7297 21.7812 41.4742 21.4667 39.7679C21.433 39.5908 21.3862 39.3928 21.3498 39.2052C20.8118 36.5586 19.7671 33.1096 17.7374 31.3305C14.1899 28.2201 11.235 30.9527 11.235 30.9527C11.235 30.9527 14.0002 27.1808 11.9159 23.7969C10.9387 22.2105 8.73228 20.9211 6.49726 19.9364C6.32313 19.8582 6.14901 19.7853 5.97229 19.7097C4.42596 19.0637 2.92121 18.5584 1.84528 18.2432C2.92121 18.5063 4.44415 18.7902 6.05285 18.9283C6.23477 18.9439 6.41409 18.9543 6.59601 18.9647C9.01036 19.1054 11.5183 18.8371 12.9476 17.3731C16.3366 13.9007 13.7845 7.72956 13.7845 7.72956C13.7845 7.72956 16.9239 13.312 22.0099 12.5722C25.968 11.9965 29.188 7.04967 30.9786 3.60852C31.067 3.4418 31.1527 3.27248 31.2359 3.11097C31.987 1.61573 32.4366 0.492993 32.5093 0.310646C32.4366 0.495598 32.0026 1.61573 31.4698 3.18391C31.4126 3.35323 31.3554 3.52777 31.2957 3.7049C29.9494 7.76082 28.1744 14.2237 29.7493 16.2816C31.8856 19.0663 42.4994 16.2816 42.4994 16.2816C42.4994 16.2816 33.6528 19.1419 32.3014 24.06C31.1345 28.2983 36.0698 32.9507 36.0698 32.9507C36.0698 32.9507 30.0326 29.0329 26.7268 31.0361C23.9383 32.7241 22.7714 36.4909 22.2672 39.3016V39.2964ZM42.7021 16.3181C43.0997 17.829 43.3804 19.3867 43.3804 21.0226C43.3804 31.2445 35.0848 39.5621 24.8843 39.5621C24.0864 39.5621 23.3249 39.4241 22.5531 39.3251C22.6414 38.8353 22.7376 38.3352 22.8727 37.8038C23.5406 37.8845 24.1956 38.007 24.8843 38.007C34.2298 38.007 41.8289 30.3901 41.8289 21.0226C41.8289 19.6368 41.6158 18.3109 41.3039 17.0214C42.0524 16.7219 42.5644 16.5473 42.5851 16.5395C42.6761 16.5109 42.7229 16.4588 42.6995 16.3181" fill="#006241"/>
<path d="M21.7915 18.6953C19.4317 18.6953 17.5164 20.6126 17.5164 22.9779C17.5164 25.3432 19.4317 27.2578 21.7915 27.2578C24.1513 27.2578 26.064 25.3432 26.064 22.9779C26.064 20.6126 24.1513 18.6953 21.7915 18.6953Z" fill="#006241"/>
</g>
<defs>
<clipPath id="clip0_2944_2207">
<rect width="198" height="43" fill="white"/>
</clipPath>
</defs>
</svg>
