<svg width="48" height="49" viewBox="0 0 48 49" fill="none" xmlns="http://www.w3.org/2000/svg">
<path d="M40.4733 25.5465V5.44138C40.4733 3.26459 38.7086 1.4999 36.5318 1.5H4.03687" stroke="white" stroke-width="3" stroke-miterlimit="10"/>
<path d="M7.8064 9.62207V21.2212V39.5174V47.5075H40.4731V42.302" stroke="white" stroke-width="3" stroke-miterlimit="10"/>
<path d="M4.65352 1.54883C2.91192 1.54883 1.5 2.96065 1.5 4.70235V9.62142H7.80695V4.70235C7.80705 2.96065 6.39513 1.54883 4.65352 1.54883Z" stroke="white" stroke-width="3" stroke-miterlimit="10"/>
<path d="M44.7123 35.8564V43.9448L40.4734 42.3015L36.2344 43.9448V35.8564" stroke="white" stroke-width="3" stroke-miterlimit="10"/>
<path d="M40.4734 37.1225C43.8018 37.1225 46.5 34.4243 46.5 31.0959C46.5 27.7675 43.8018 25.0693 40.4734 25.0693C37.145 25.0693 34.4468 27.7675 34.4468 31.0959C34.4468 34.4243 37.145 37.1225 40.4734 37.1225Z" stroke="white" stroke-width="3" stroke-miterlimit="10"/>
<path d="M35.0882 34.998H13.3884" stroke="white" stroke-width="3" stroke-miterlimit="10"/>
<path d="M25.0866 40.8486H13.3884" stroke="white" stroke-width="3" stroke-miterlimit="10"/>
<path d="M23.9999 29.0677C30.0271 29.0677 34.9131 24.1817 34.9131 18.1544C34.9131 12.1272 30.0271 7.24121 23.9999 7.24121C17.9727 7.24121 13.0867 12.1272 13.0867 18.1544C13.0867 24.1817 17.9727 29.0677 23.9999 29.0677Z" stroke="white" stroke-width="3" stroke-miterlimit="10"/>
<path d="M29.9746 8.49414L27.2402 12.5881V17.6474L33.1241 25.4029" stroke="white" stroke-width="3" stroke-miterlimit="10"/>
<path d="M16.5232 10.1367L19.4441 12.4311V16.2329L21.6414 20.2685V29.1212" stroke="white" stroke-width="3" stroke-miterlimit="10"/>
</svg>
