<svg width="36" height="36" viewBox="0 0 36 36" fill="none" xmlns="http://www.w3.org/2000/svg">
<path d="M18.6839 3.31201H17.2799C14.2919 3.31201 11.8799 5.76001 11.8799 8.74801V17.892C11.8799 20.88 14.3279 23.328 17.3159 23.328H18.7199C21.7079 23.328 24.1199 20.88 24.1199 17.892V8.74801C24.1199 5.76001 21.7079 3.31201 18.6839 3.31201ZM23.0399 17.892C23.0399 20.304 21.0959 22.248 18.6839 22.248H17.2799C14.8679 22.248 12.9239 20.304 12.9239 17.892V8.74801C12.9239 6.33601 14.8679 4.39201 17.2799 4.39201H18.6839C21.0959 4.39201 23.0399 6.33601 23.0399 8.74801V17.892Z" fill="white" fill-opacity="0.7"/>
<path d="M18 7.41602C17.712 7.41602 17.46 7.66802 17.46 7.95602V11.808C17.46 12.096 17.712 12.348 18 12.348C18.288 12.348 18.54 12.096 18.54 11.808V7.95602C18.54 7.63202 18.288 7.41602 18 7.41602Z" fill="white" fill-opacity="0.7"/>
<path d="M20.196 29.1601L18.54 30.8161V25.9921C18.54 25.7041 18.288 25.4521 18 25.4521C17.712 25.4521 17.46 25.7041 17.46 25.9921V30.8521L15.804 29.1601C15.588 28.9441 15.264 28.9441 15.048 29.1601C14.832 29.3761 14.832 29.7001 15.048 29.9161L17.64 32.5082C17.676 32.5442 17.748 32.6161 17.82 32.6161C17.892 32.6521 17.964 32.6521 18 32.6521C18.036 32.6521 18.144 32.6521 18.18 32.6161C18.252 32.5801 18.324 32.5442 18.36 32.5082L20.952 29.9161C21.168 29.7001 21.168 29.3761 20.952 29.1601C20.736 28.9441 20.412 28.9801 20.196 29.1601Z" fill="white" fill-opacity="0.7"/>
</svg>
