<svg preserveAspectRatio="none" width="100%" height="100%" overflow="visible" style="display: block;" viewBox="0 0 201.339 20" fill="none" xmlns="http://www.w3.org/2000/svg">
<g id="Group 17">
<g id="Group">
<path id="Vector" d="M4.55078 0.323185H0V19.7032H4.55078V0.323185Z" fill="var(--fill-0, white)"/>
<path id="Vector_2" d="M14.7029 0.323128H10.1521V19.7032H14.7029V0.323128Z" fill="var(--fill-0, white)"/>
</g>
<path id="Vector_3" d="M60.3451 2.61429H58.0562V17.4391H60.3451V2.61429Z" fill="var(--fill-0, white)"/>
<path id="Vector_4" d="M46.5043 2.61429V9.99973V17.4121L55.0404 9.99973L46.5043 2.61429Z" fill="var(--fill-0, white)"/>
<path id="Vector_5" d="M87.9459 6.30717H83.2066V9.99989V13.7196H87.9459L93.4661 19.2182V9.99989V0.808516L87.9459 6.30717Z" fill="var(--fill-0, white)"/>
<path id="Vector_6" d="M96.4283 20L95.782 17.8167C98.9057 16.8733 101.087 13.6658 101.087 10C101.087 6.33423 98.9057 3.12668 95.782 2.18329L96.4283 0C100.494 1.21294 103.349 5.33693 103.349 10C103.349 14.6631 100.494 18.7601 96.4283 19.973V20Z" fill="var(--fill-0, white)"/>
<path id="Vector_7" d="M95.6472 14.5552C97.4514 14.0161 98.7708 12.1832 98.7708 9.99991C98.7708 7.81662 97.4514 5.98373 95.6472 5.44465V14.5552Z" fill="var(--fill-0, white)"/>
<g id="Group_2">
<path id="Vector_8" d="M125.241 15.5254C122.468 15.5254 121.256 13.0187 121.229 9.99982C121.229 6.87314 122.521 4.42031 125.322 4.42031C128.122 4.42031 129.307 6.98095 129.307 9.91896C129.307 13.2343 127.961 15.5254 125.268 15.5254H125.241ZM125.295 13.6117C126.264 13.6117 126.803 12.3987 126.803 9.94591C126.803 7.49308 126.291 6.3071 125.295 6.3071C124.353 6.3071 123.76 7.52004 123.76 9.94591C123.76 12.4257 124.326 13.6117 125.295 13.6117Z" fill="var(--fill-0, white)"/>
<path id="Vector_9" d="M132.135 10.1883C131.273 10.1883 130.681 9.54138 130.681 8.67884C130.681 7.81631 131.3 7.16941 132.162 7.16941C133.023 7.16941 133.616 7.78936 133.643 8.67884C133.643 9.54138 133.077 10.1883 132.162 10.1883H132.135ZM132.135 15.5252C131.273 15.5252 130.681 14.8783 130.681 14.0158C130.681 13.1532 131.3 12.5063 132.162 12.5063C133.023 12.5063 133.616 13.1263 133.643 14.0158C133.643 14.8783 133.077 15.5252 132.162 15.5252H132.135Z" fill="var(--fill-0, white)"/>
<path id="Vector_10" d="M138.032 6.81928H138.005L135.958 7.78963L135.554 5.90284L138.409 4.58208H140.482V15.3368H138.059V6.81928H138.032Z" fill="var(--fill-0, white)"/>
<path id="Vector_11" d="M147.995 4.42031C150.499 4.42031 151.55 5.87583 151.55 7.16963C151.55 8.08607 151.065 9.00252 149.988 9.5416V9.59551C151.038 9.99982 151.98 10.8893 151.98 12.264C151.98 14.2047 150.338 15.5254 147.86 15.5254C145.141 15.5254 143.875 13.989 143.875 12.5335C143.875 11.2397 144.629 10.3502 145.787 9.8381C144.737 9.27206 144.225 8.38257 144.225 7.43917C144.225 5.63324 145.868 4.42031 147.995 4.42031ZM147.914 13.8004C148.803 13.8004 149.395 13.2343 149.395 12.4526C149.395 11.5093 148.695 10.9432 147.699 10.6737C146.864 10.9163 146.406 11.5093 146.406 12.264C146.406 13.0456 146.972 13.7734 147.914 13.7734V13.8004ZM147.86 6.11842C146.999 6.11842 146.568 6.71141 146.568 7.35831C146.568 8.08607 147.214 8.5443 148.076 8.81384C148.641 8.65211 149.153 8.11303 149.153 7.46613C149.153 6.81923 148.776 6.11842 147.86 6.11842Z" fill="var(--fill-0, white)"/>
<path id="Vector_12" d="M152.734 16.0105L156.262 4.01586H157.931L154.404 16.0105H152.734Z" fill="var(--fill-0, white)"/>
<path id="Vector_13" d="M165.175 6.81928H165.148L163.102 7.78963L162.698 5.90284L165.552 4.58208H167.626V15.3368H165.202V6.81928H165.175Z" fill="var(--fill-0, white)"/>
<path id="Vector_14" d="M171.153 15.3367V13.8273L172.526 12.5874C174.896 10.458 176.027 9.27206 176.054 8.00521C176.054 7.14268 175.542 6.44187 174.304 6.44187C173.388 6.44187 172.58 6.90009 172.015 7.3044L171.315 5.52543C172.095 4.90548 173.388 4.42031 174.815 4.42031C177.266 4.42031 178.585 5.84888 178.585 7.78958C178.585 9.59551 177.293 11.0241 175.731 12.4257L174.734 13.2613L178.8 13.2882V15.3637H171.18L171.153 15.3367Z" fill="var(--fill-0, white)"/>
<path id="Vector_15" d="M181.897 10.1883C181.035 10.1883 180.443 9.54138 180.443 8.67884C180.443 7.81631 181.062 7.16941 181.924 7.16941C182.786 7.16941 183.378 7.78936 183.405 8.67884C183.405 9.54138 182.84 10.1883 181.924 10.1883H181.897ZM181.897 15.5252C181.035 15.5252 180.443 14.8783 180.443 14.0158C180.443 13.1532 181.062 12.5063 181.924 12.5063C182.786 12.5063 183.378 13.1263 183.405 14.0158C183.405 14.8783 182.84 15.5252 181.924 15.5252H181.897Z" fill="var(--fill-0, white)"/>
<path id="Vector_16" d="M188.468 15.5254C185.694 15.5254 184.482 13.0187 184.455 9.99982C184.455 6.87314 185.748 4.42031 188.548 4.42031C191.349 4.42031 192.534 6.98095 192.534 9.91896C192.534 13.2343 191.187 15.5254 188.494 15.5254H188.468ZM188.521 13.6117C189.491 13.6117 190.029 12.3987 190.029 9.94591C190.029 7.49308 189.518 6.3071 188.521 6.3071C187.579 6.3071 186.987 7.52004 186.987 9.94591C186.987 12.4257 187.552 13.6117 188.521 13.6117Z" fill="var(--fill-0, white)"/>
<path id="Vector_17" d="M200.935 6.6572H196.761L196.519 8.3014C196.761 8.3014 196.95 8.27444 197.219 8.27444C198.242 8.27444 199.292 8.51703 200.046 9.05612C200.854 9.5952 201.339 10.4847 201.339 11.7515C201.339 13.7461 199.616 15.5251 196.734 15.5251C195.442 15.5251 194.338 15.2286 193.745 14.9052L194.203 13.0184C194.661 13.261 195.63 13.5575 196.627 13.5575C197.677 13.5575 198.781 13.0723 198.781 11.9133C198.781 10.7542 197.892 10.1343 195.765 10.1343C195.172 10.1343 194.769 10.1612 194.338 10.2421L195.038 4.60868H200.962V6.68415L200.935 6.6572Z" fill="var(--fill-0, white)"/>
</g>
</g>
</svg>
