<svg preserveAspectRatio="none" width="100%" height="100%" overflow="visible" style="display: block;" viewBox="0 0 24.1025 20" fill="none" xmlns="http://www.w3.org/2000/svg">
<path id="Vector" d="M20.4223 10.0655V10.0131C20.4223 9.3578 21.7194 8.75492 22.4434 8.38794L24.0724 7.49672L20.1206 2.09699L18.4615 3.01442C17.5565 3.59109 16.7119 3.90564 16.1086 3.93185C15.8974 3.80079 15.6259 2.88336 15.7164 1.65138V0H8.35591V1.7038C8.44641 3.04063 8.14474 3.87942 7.96374 3.95806C7.75258 4.01049 6.84767 3.80079 5.5807 2.9882L3.98192 2.09699L0.0301953 7.49672L1.84007 8.49279C2.62439 8.91219 3.71044 9.51507 3.61994 10.1442C3.55961 10.6946 2.56412 11.1664 1.80997 11.5334L0 12.5033L3.95172 17.903L4.76617 17.4574C5.21866 17.2215 5.45998 17.0642 5.61081 16.9856C6.60628 16.3565 7.69231 15.9895 7.93364 16.0157C8.26546 16.3827 8.44641 17.2477 8.35591 18.3486V20H15.7164V17.9817C15.7164 17.3788 15.6862 16.4875 16.0181 16.1206C16.1991 15.9371 17.1342 16.1206 18.5218 16.9856L20.1508 17.8768L24.1025 12.4771L22.0512 11.3499C21.3273 10.983 20.5128 10.5374 20.4827 10.0393L20.4223 10.0655ZM12.0362 12.3984C10.5279 12.3984 9.29105 11.3237 9.29105 10.0131C9.29105 8.70249 10.5279 7.62779 12.0362 7.62779C13.5444 7.62779 14.7813 8.70249 14.7813 10.0131C14.7813 11.3237 13.5444 12.3984 12.0362 12.3984Z" fill="var(--fill-0, white)"/>
</svg>
