<svg width="60" height="60" viewBox="0 0 60 60" fill="none" xmlns="http://www.w3.org/2000/svg">
<path d="M12.3487 46.1489C9.63826 46.1489 6.92783 45.115 4.85982 43.047C0.723809 38.911 0.723809 32.2053 4.85982 28.0692L22.3338 10.5952C26.4698 6.45916 33.1755 6.45916 37.3115 10.5952C41.4475 14.7312 41.4475 21.4369 37.3115 25.5729L32.0961 30.7883" stroke="white" stroke-width="3" stroke-miterlimit="10"/>
<path d="M16.093 16.8359L31.0708 31.8137" stroke="white" stroke-width="3" stroke-miterlimit="10"/>
<path d="M21.3628 32.0902L11.1006 21.8281" stroke="white" stroke-width="3" stroke-miterlimit="10"/>
<path d="M12.3486 41.915C12.3486 36.0659 17.0903 31.3242 22.9395 31.3242H47.6514C53.5005 31.3242 58.2422 36.0659 58.2422 41.915C58.2422 47.7642 53.5005 52.5059 47.6514 52.5059H22.9395C17.0903 52.5059 12.3486 47.7641 12.3486 41.915Z" stroke="white" stroke-width="3" stroke-miterlimit="10"/>
<path d="M38.8257 31.3242V52.5059" stroke="white" stroke-width="3" stroke-miterlimit="10"/>
<path d="M31.7651 52.5059V31.3242" stroke="white" stroke-width="3" stroke-miterlimit="10"/>
</svg>
