<svg width="32" height="32" viewBox="0 0 32 32" fill="none" xmlns="http://www.w3.org/2000/svg">
<path fill-rule="evenodd" clip-rule="evenodd" d="M8.45739 8.45688C12.623 4.29128 19.3768 4.29128 23.5424 8.45688C27.708 12.6225 27.708 19.3763 23.5424 23.5419C20.9282 26.156 17.295 27.1309 13.9166 26.4619C13.1942 26.3188 12.4927 26.7884 12.3497 27.5108C12.2066 28.2331 12.6762 28.9347 13.3986 29.0777C17.6126 29.9123 22.1583 28.6972 25.428 25.4275C30.635 20.2204 30.635 11.7783 25.428 6.57126C20.221 1.36427 11.7789 1.36427 6.57179 6.57126C3.30205 9.841 2.08699 14.3867 2.92152 18.6007C3.06459 19.3231 3.76619 19.7927 4.48845 19.6496C5.21085 19.5065 5.68045 18.8051 5.53739 18.0827C4.86832 14.7043 5.84325 11.0711 8.45739 8.45688ZM18.6666 11.9993H11.1241C10.3878 11.9993 9.79072 12.5963 9.79072 13.3327C9.79072 14.0691 10.3878 14.666 11.1241 14.666H15.4477L6.57179 23.5419C6.05112 24.0625 6.05112 24.9067 6.57179 25.4275C7.09259 25.9481 7.93672 25.9481 8.45739 25.4275L17.3333 16.5516V20.8752C17.3333 21.6115 17.9302 22.2085 18.6666 22.2085C19.403 22.2085 19.9999 21.6115 19.9999 20.8752V13.3327C19.9999 12.5963 19.403 11.9993 18.6666 11.9993Z" fill="white"/>
</svg>
