<svg preserveAspectRatio="none" width="100%" height="100%" overflow="visible" style="display: block;" viewBox="0 0 32 32" fill="none" xmlns="http://www.w3.org/2000/svg">
<g id="top-left_8677620 1">
<path id="Vector" fill-rule="evenodd" clip-rule="evenodd" d="M23.5425 8.45753C19.3769 4.29193 12.6231 4.29193 8.45753 8.45753C4.29193 12.6231 4.29193 19.3769 8.45753 23.5425C11.0717 26.1567 14.7049 27.1316 18.0833 26.4625C18.8057 26.3195 19.5072 26.7891 19.6503 27.5115C19.7933 28.2337 19.3237 28.9353 18.6013 29.0784C14.3873 29.9129 9.84165 28.6979 6.57191 25.4281C1.36492 20.2211 1.36492 11.7789 6.57191 6.57191C11.7789 1.36492 20.2211 1.36492 25.4281 6.57191C28.6979 9.84165 29.9129 14.3873 29.0784 18.6013C28.9353 19.3237 28.2337 19.7933 27.5115 19.6503C26.7891 19.5072 26.3195 18.8057 26.4625 18.0833C27.1316 14.7049 26.1567 11.0717 23.5425 8.45753ZM13.3333 12H20.8759C21.6121 12 22.2092 12.597 22.2092 13.3333C22.2092 14.0697 21.6121 14.6667 20.8759 14.6667H16.5523L25.4281 23.5425C25.9488 24.0632 25.9488 24.9073 25.4281 25.4281C24.9073 25.9488 24.0632 25.9488 23.5425 25.4281L14.6667 16.5523V20.8759C14.6667 21.6121 14.0697 22.2092 13.3333 22.2092C12.597 22.2092 12 21.6121 12 20.8759V13.3333C12 12.597 12.597 12 13.3333 12Z" fill="var(--fill-0, white)"/>
</g>
</svg>
